<svg width="511" height="372" viewBox="0 0 511 372" fill="none" xmlns="http://www.w3.org/2000/svg">
<g clip-path="url(#clip0)">
<path opacity="0.24" d="M493.4 331.34C491.49 341.34 487.19 350.59 479.81 357.61C459.32 377.1 426.66 371.47 398.81 366.66C349.843 358.162 299.966 356.188 250.48 360.79C194.58 365.99 136.41 379.31 83.6601 360.09C68.0596 354.558 54.4308 344.56 44.4701 331.34C43.5301 330.16 42.6501 328.95 41.8701 327.74C34.1301 316.54 28.7501 303.5 25.0501 289.42C24.6601 287.88 24.2901 286.31 23.9301 284.73C12.9301 236.64 21.5701 177.66 30.3201 137.47C34.1601 119.82 39.2101 102.3 47.7201 86.35C69.5101 45.35 112.42 18.59 157.49 7.48C202.56 -3.63 249.92 -0.749998 295.89 5.72C332.69 10.87 371.19 19.28 398.49 44.49C423.82 67.86 435.62 102.36 442.75 136.11C449.88 169.86 453.35 204.69 466.18 236.68C474.29 256.87 486.03 275.68 491.69 296.68C492.541 299.815 493.208 302.997 493.69 306.21C495.01 314.543 494.912 323.039 493.4 331.34V331.34Z" fill="#5E72E4"/>
<path opacity="0.26" d="M493.4 331.34H43.4501L41.8801 327.74L25.05 289.42L23.05 284.76H23.96L479.75 274.53L493.67 306.16C495.002 314.508 494.911 323.022 493.4 331.34V331.34Z" fill="url(#paint0_linear)"/>
<path d="M121.91 84.23H20.45C15.8991 84.23 12.21 87.9169 12.21 92.465C12.21 97.013 15.8991 100.7 20.45 100.7H121.91C126.461 100.7 130.15 97.013 130.15 92.465C130.15 87.9169 126.461 84.23 121.91 84.23Z" stroke="#5E72E4" stroke-width="0.68" stroke-miterlimit="10"/>
<path d="M243.34 84.23H141.88C137.329 84.23 133.64 87.9169 133.64 92.465C133.64 97.013 137.329 100.7 141.88 100.7H243.34C247.891 100.7 251.58 97.013 251.58 92.465C251.58 87.9169 247.891 84.23 243.34 84.23Z" stroke="#5E72E4" stroke-width="0.68" stroke-miterlimit="10"/>
<path d="M364.77 84.23H263.31C258.759 84.23 255.07 87.9169 255.07 92.465C255.07 97.013 258.759 100.7 263.31 100.7H364.77C369.321 100.7 373.01 97.013 373.01 92.465C373.01 87.9169 369.321 84.23 364.77 84.23Z" stroke="#5E72E4" stroke-width="0.68" stroke-miterlimit="10"/>
<path d="M486.2 84.23H384.74C380.189 84.23 376.5 87.9169 376.5 92.465C376.5 97.013 380.189 100.7 384.74 100.7H486.2C490.751 100.7 494.44 97.013 494.44 92.465C494.44 87.9169 490.751 84.23 486.2 84.23Z" stroke="#5E72E4" stroke-width="0.68" stroke-miterlimit="10"/>
<path d="M495.52 64.92H14.91C6.67543 64.92 0 71.5955 0 79.83V282.64C0 290.875 6.67543 297.55 14.91 297.55H495.52C503.755 297.55 510.43 290.875 510.43 282.64V79.83C510.43 71.5955 503.755 64.92 495.52 64.92Z" fill="#5E72E4"/>
<path d="M495.52 57.25H14.91C6.67543 57.25 0 63.9254 0 72.16V274.97C0 283.205 6.67543 289.88 14.91 289.88H495.52C503.755 289.88 510.43 283.205 510.43 274.97V72.16C510.43 63.9254 503.755 57.25 495.52 57.25Z" fill="url(#paint1_linear)"/>
<path opacity="0.26" d="M394.92 266.47C394.839 263.798 394.234 261.169 393.14 258.73C389.48 251.78 379.91 251.01 373.49 246.48C368.33 242.83 365.36 236.7 364.21 230.48C363.06 224.26 363.52 217.88 363.99 211.58C364.12 209.79 364.31 207.85 365.52 206.52C368.14 203.61 372.9 205.69 376.13 207.9L384.73 213.78C386.55 215.02 389.05 216.26 390.73 214.9C391.87 214 392.06 212.38 392.17 210.9L393.8 188.2C394.25 181.93 395.33 174.63 400.8 171.61C406.27 168.59 413.41 171.82 416.86 176.97C420.31 182.12 420.96 188.6 421.41 194.78C423.722 227.275 423.237 259.908 419.96 292.32C419.83 293.6 419.6 295.04 418.54 295.77C417.708 296.207 416.761 296.375 415.83 296.25C409.83 296.06 398.98 298.33 396.04 292.02C393.1 285.71 395.54 273.45 394.92 266.47Z" fill="url(#paint2_linear)"/>
<path d="M362.16 201.04L386.66 194.44L399.23 223.63L395.07 231.72L378.24 230.76L362.16 201.04Z" fill="url(#paint3_linear)"/>
<path d="M366.59 222.98C366.236 220.421 366.294 217.821 366.76 215.28C366.801 214.881 366.927 214.496 367.13 214.15C367.86 213.09 369.6 213.51 370.44 214.47C371.28 215.43 371.65 216.74 372.44 217.73C373.11 218.54 374.04 219.09 374.78 219.84C375.963 221.197 376.758 222.849 377.08 224.62C377.204 225.069 377.255 225.535 377.23 226C377.095 226.648 376.814 227.256 376.41 227.78C375.1 229.78 372.86 232.54 370.41 230.64C368.18 228.93 367.01 225.63 366.59 222.98Z" fill="url(#paint4_linear)"/>
<path opacity="0.68" d="M494.26 87.64H390.23C387.944 87.64 386.09 89.4936 386.09 91.78V100.54C386.09 102.826 387.944 104.68 390.23 104.68H494.26C496.546 104.68 498.4 102.826 498.4 100.54V91.78C498.4 89.4936 496.546 87.64 494.26 87.64Z" fill="#5E72E4"/>
<path d="M117.14 110H21.48C17.3048 110 13.92 113.385 13.92 117.56V265.84C13.92 270.015 17.3048 273.4 21.48 273.4H117.14C121.315 273.4 124.7 270.015 124.7 265.84V117.56C124.7 113.385 121.315 110 117.14 110Z" fill="white"/>
<path d="M240.59 109.8H146.86C141.21 109.8 136.63 114.38 136.63 120.03V151.83C136.63 157.48 141.21 162.06 146.86 162.06H240.59C246.24 162.06 250.82 157.48 250.82 151.83V120.03C250.82 114.38 246.24 109.8 240.59 109.8Z" fill="white"/>
<path d="M240.4 169.87H147.05C141.295 169.87 136.63 174.535 136.63 180.29V213.66C136.63 219.415 141.295 224.08 147.05 224.08H240.4C246.155 224.08 250.82 219.415 250.82 213.66V180.29C250.82 174.535 246.155 169.87 240.4 169.87Z" fill="white"/>
<path d="M240.59 230.51H146.86C141.21 230.51 136.63 235.09 136.63 240.74V272.54C136.63 278.19 141.21 282.77 146.86 282.77H240.59C246.24 282.77 250.82 278.19 250.82 272.54V240.74C250.82 235.09 246.24 230.51 240.59 230.51Z" fill="white"/>
<path d="M366.67 111.5H271.86C266.508 111.5 262.17 115.838 262.17 121.19V123.05C262.17 128.402 266.508 132.74 271.86 132.74H366.67C372.022 132.74 376.36 128.402 376.36 123.05V121.19C376.36 115.838 372.022 111.5 366.67 111.5Z" fill="white"/>
<path d="M492.5 113.2H390.31C386.996 113.2 384.31 115.886 384.31 119.2V125.18C384.31 128.494 386.996 131.18 390.31 131.18H492.5C495.814 131.18 498.5 128.494 498.5 125.18V119.2C498.5 115.886 495.814 113.2 492.5 113.2Z" fill="white"/>
<path opacity="0.68" d="M121.13 87.64H17.48C15.199 87.64 13.35 89.4891 13.35 91.77V100.55C13.35 102.831 15.199 104.68 17.48 104.68H121.13C123.411 104.68 125.26 102.831 125.26 100.55V91.77C125.26 89.4891 123.411 87.64 121.13 87.64Z" fill="#5E72E4"/>
<path opacity="0.93" d="M245.04 87.64H141.39C139.109 87.64 137.26 89.4891 137.26 91.77V100.55C137.26 102.831 139.109 104.68 141.39 104.68H245.04C247.321 104.68 249.17 102.831 249.17 100.55V91.77C249.17 89.4891 247.321 87.64 245.04 87.64Z" fill="#5E72E4"/>
<path opacity="0.68" d="M370.7 87.64H266.67C264.384 87.64 262.53 89.4936 262.53 91.78V100.54C262.53 102.826 264.384 104.68 266.67 104.68H370.7C372.987 104.68 374.84 102.826 374.84 100.54V91.78C374.84 89.4936 372.987 87.64 370.7 87.64Z" fill="#5E72E4"/>
<path opacity="0.26" d="M370.7 87.64H266.67C264.384 87.64 262.53 89.4936 262.53 91.78V100.54C262.53 102.826 264.384 104.68 266.67 104.68H370.7C372.987 104.68 374.84 102.826 374.84 100.54V91.78C374.84 89.4936 372.987 87.64 370.7 87.64Z" fill="url(#paint5_linear)"/>
<path opacity="0.26" d="M495.11 87.64H391.08C388.794 87.64 386.94 89.4936 386.94 91.78V100.54C386.94 102.826 388.794 104.68 391.08 104.68H495.11C497.396 104.68 499.25 102.826 499.25 100.54V91.78C499.25 89.4936 497.396 87.64 495.11 87.64Z" fill="url(#paint6_linear)"/>
<path opacity="0.26" d="M149.02 130.1C152.372 130.1 155.09 127.382 155.09 124.03C155.09 120.678 152.372 117.96 149.02 117.96C145.668 117.96 142.95 120.678 142.95 124.03C142.95 127.382 145.668 130.1 149.02 130.1Z" fill="url(#paint7_linear)"/>
<path opacity="0.26" d="M149.02 148.64C152.372 148.64 155.09 145.922 155.09 142.57C155.09 139.218 152.372 136.5 149.02 136.5C145.668 136.5 142.95 139.218 142.95 142.57C142.95 145.922 145.668 148.64 149.02 148.64Z" fill="url(#paint8_linear)"/>
<path opacity="0.68" d="M68.42 121.16H25.56C24.3064 121.16 23.29 122.176 23.29 123.43C23.29 124.684 24.3064 125.7 25.56 125.7H68.42C69.6737 125.7 70.69 124.684 70.69 123.43C70.69 122.176 69.6737 121.16 68.42 121.16Z" fill="#5E72E4"/>
<path opacity="0.68" d="M65.05 134.79H25.56C24.3064 134.79 23.29 135.806 23.29 137.06C23.29 138.314 24.3064 139.33 25.56 139.33H65.05C66.3037 139.33 67.32 138.314 67.32 137.06C67.32 135.806 66.3037 134.79 65.05 134.79Z" fill="#5E72E4"/>
<path opacity="0.68" d="M65.05 164.33H25.56C24.3064 164.33 23.29 165.346 23.29 166.6C23.29 167.854 24.3064 168.87 25.56 168.87H65.05C66.3037 168.87 67.32 167.854 67.32 166.6C67.32 165.346 66.3037 164.33 65.05 164.33Z" fill="#5E72E4"/>
<path opacity="0.68" d="M100.71 175.69H25.56C24.3064 175.69 23.29 176.706 23.29 177.96C23.29 179.214 24.3064 180.23 25.56 180.23H100.71C101.964 180.23 102.98 179.214 102.98 177.96C102.98 176.706 101.964 175.69 100.71 175.69Z" fill="#5E72E4"/>
<path opacity="0.68" d="M238.76 120.31H163.61C162.356 120.31 161.34 121.326 161.34 122.58C161.34 123.834 162.356 124.85 163.61 124.85H238.76C240.014 124.85 241.03 123.834 241.03 122.58C241.03 121.326 240.014 120.31 238.76 120.31Z" fill="#5E72E4"/>
<path opacity="0.26" d="M274.56 129.04C277.912 129.04 280.63 126.322 280.63 122.97C280.63 119.618 277.912 116.9 274.56 116.9C271.208 116.9 268.49 119.618 268.49 122.97C268.49 126.322 271.208 129.04 274.56 129.04Z" fill="url(#paint9_linear)"/>
<path opacity="0.68" d="M364.31 119.24H289.16C287.906 119.24 286.89 120.256 286.89 121.51C286.89 122.764 287.906 123.78 289.16 123.78H364.31C365.564 123.78 366.58 122.764 366.58 121.51C366.58 120.256 365.564 119.24 364.31 119.24Z" fill="#5E72E4"/>
<path opacity="0.26" d="M400.25 129.04C403.602 129.04 406.32 126.322 406.32 122.97C406.32 119.618 403.602 116.9 400.25 116.9C396.898 116.9 394.18 119.618 394.18 122.97C394.18 126.322 396.898 129.04 400.25 129.04Z" fill="url(#paint10_linear)"/>
<path opacity="0.68" d="M490 119.24H414.85C413.596 119.24 412.58 120.256 412.58 121.51C412.58 122.764 413.596 123.78 414.85 123.78H490C491.254 123.78 492.27 122.764 492.27 121.51C492.27 120.256 491.254 119.24 490 119.24Z" fill="#5E72E4"/>
<path d="M366.67 136.64H271.86C266.508 136.64 262.17 140.978 262.17 146.33V148.19C262.17 153.542 266.508 157.88 271.86 157.88H366.67C372.022 157.88 376.36 153.542 376.36 148.19V146.33C376.36 140.978 372.022 136.64 366.67 136.64Z" fill="white"/>
<path opacity="0.26" d="M274.56 154.18C277.912 154.18 280.63 151.462 280.63 148.11C280.63 144.758 277.912 142.04 274.56 142.04C271.208 142.04 268.49 144.758 268.49 148.11C268.49 151.462 271.208 154.18 274.56 154.18Z" fill="url(#paint11_linear)"/>
<path opacity="0.68" d="M364.31 144.38H289.16C287.906 144.38 286.89 145.396 286.89 146.65C286.89 147.904 287.906 148.92 289.16 148.92H364.31C365.564 148.92 366.58 147.904 366.58 146.65C366.58 145.396 365.564 144.38 364.31 144.38Z" fill="#5E72E4"/>
<path d="M366.67 161.78H271.86C266.508 161.78 262.17 166.118 262.17 171.47V173.33C262.17 178.682 266.508 183.02 271.86 183.02H366.67C372.022 183.02 376.36 178.682 376.36 173.33V171.47C376.36 166.118 372.022 161.78 366.67 161.78Z" fill="white"/>
<path opacity="0.26" d="M274.56 179.31C277.912 179.31 280.63 176.592 280.63 173.24C280.63 169.888 277.912 167.17 274.56 167.17C271.208 167.17 268.49 169.888 268.49 173.24C268.49 176.592 271.208 179.31 274.56 179.31Z" fill="url(#paint12_linear)"/>
<path opacity="0.68" d="M364.31 169.52H289.16C287.906 169.52 286.89 170.536 286.89 171.79C286.89 173.044 287.906 174.06 289.16 174.06H364.31C365.564 174.06 366.58 173.044 366.58 171.79C366.58 170.536 365.564 169.52 364.31 169.52Z" fill="#5E72E4"/>
<path opacity="0.68" d="M225.66 139.62H163.41C162.267 139.62 161.34 140.547 161.34 141.69V142.09C161.34 143.233 162.267 144.16 163.41 144.16H225.66C226.803 144.16 227.73 143.233 227.73 142.09V141.69C227.73 140.547 226.803 139.62 225.66 139.62Z" fill="#5E72E4"/>
<path opacity="0.26" d="M149.02 186.98C152.372 186.98 155.09 184.262 155.09 180.91C155.09 177.558 152.372 174.84 149.02 174.84C145.668 174.84 142.95 177.558 142.95 180.91C142.95 184.262 145.668 186.98 149.02 186.98Z" fill="url(#paint13_linear)"/>
<path opacity="0.68" d="M225.66 177.97H163.41C162.267 177.97 161.34 178.897 161.34 180.04V180.44C161.34 181.583 162.267 182.51 163.41 182.51H225.66C226.803 182.51 227.73 181.583 227.73 180.44V180.04C227.73 178.897 226.803 177.97 225.66 177.97Z" fill="#5E72E4"/>
<path opacity="0.26" d="M149.02 203.17C152.372 203.17 155.09 200.452 155.09 197.1C155.09 193.748 152.372 191.03 149.02 191.03C145.668 191.03 142.95 193.748 142.95 197.1C142.95 200.452 145.668 203.17 149.02 203.17Z" fill="url(#paint14_linear)"/>
<path opacity="0.68" d="M225.66 194.16H163.41C162.267 194.16 161.34 195.087 161.34 196.23V196.63C161.34 197.773 162.267 198.7 163.41 198.7H225.66C226.803 198.7 227.73 197.773 227.73 196.63V196.23C227.73 195.087 226.803 194.16 225.66 194.16Z" fill="#5E72E4"/>
<path opacity="0.26" d="M149.02 219.36C152.372 219.36 155.09 216.642 155.09 213.29C155.09 209.938 152.372 207.22 149.02 207.22C145.668 207.22 142.95 209.938 142.95 213.29C142.95 216.642 145.668 219.36 149.02 219.36Z" fill="url(#paint15_linear)"/>
<path opacity="0.68" d="M225.66 210.35H163.41C162.267 210.35 161.34 211.277 161.34 212.42V212.82C161.34 213.963 162.267 214.89 163.41 214.89H225.66C226.803 214.89 227.73 213.963 227.73 212.82V212.42C227.73 211.277 226.803 210.35 225.66 210.35Z" fill="#5E72E4"/>
<path opacity="0.26" d="M149.02 248.76C152.372 248.76 155.09 246.042 155.09 242.69C155.09 239.338 152.372 236.62 149.02 236.62C145.668 236.62 142.95 239.338 142.95 242.69C142.95 246.042 145.668 248.76 149.02 248.76Z" fill="url(#paint16_linear)"/>
<path opacity="0.68" d="M225.66 239.75H163.41C162.267 239.75 161.34 240.677 161.34 241.82V242.22C161.34 243.363 162.267 244.29 163.41 244.29H225.66C226.803 244.29 227.73 243.363 227.73 242.22V241.82C227.73 240.677 226.803 239.75 225.66 239.75Z" fill="#5E72E4"/>
<path opacity="0.26" d="M149.02 277.2C152.372 277.2 155.09 274.482 155.09 271.13C155.09 267.778 152.372 265.06 149.02 265.06C145.668 265.06 142.95 267.778 142.95 271.13C142.95 274.482 145.668 277.2 149.02 277.2Z" fill="url(#paint17_linear)"/>
<path opacity="0.68" d="M225.66 254.94H163.41C162.267 254.94 161.34 255.867 161.34 257.01V257.41C161.34 258.553 162.267 259.48 163.41 259.48H225.66C226.803 259.48 227.73 258.553 227.73 257.41V257.01C227.73 255.867 226.803 254.94 225.66 254.94Z" fill="#5E72E4"/>
<path opacity="0.68" d="M225.66 269.71H163.41C162.267 269.71 161.34 270.637 161.34 271.78V272.18C161.34 273.323 162.267 274.25 163.41 274.25H225.66C226.803 274.25 227.73 273.323 227.73 272.18V271.78C227.73 270.637 226.803 269.71 225.66 269.71Z" fill="#5E72E4"/>
<path opacity="0.68" d="M65.05 212.05H25.56C24.3064 212.05 23.29 213.066 23.29 214.32C23.29 215.574 24.3064 216.59 25.56 216.59H65.05C66.3037 216.59 67.32 215.574 67.32 214.32C67.32 213.066 66.3037 212.05 65.05 212.05Z" fill="#5E72E4"/>
<path opacity="0.68" d="M100.71 223.41H25.56C24.3064 223.41 23.29 224.426 23.29 225.68C23.29 226.934 24.3064 227.95 25.56 227.95H100.71C101.964 227.95 102.98 226.934 102.98 225.68C102.98 224.426 101.964 223.41 100.71 223.41Z" fill="#5E72E4"/>
<path d="M401.92 258.64L407.71 355.44L418.27 356.99L423.09 283.49L427.45 356.82L437.91 357.16C437.91 357.16 442.75 283.11 441.69 277.67C440.63 272.23 441.69 254.94 441.69 254.94L401.92 258.64Z" fill="#606161"/>
<path d="M400.27 249.24C395.16 246.14 390.21 232.99 392.41 229.8C395.06 225.97 399.01 199.41 402.5 196.36C405.99 193.31 410.41 191.12 415.01 191.29C420.43 191.49 426.43 188.95 431.49 191.01C434.34 192.17 436.72 194.28 439.03 196.36C442.66 199.61 445.49 254.36 441.42 260.36C436.21 267.97 425.49 268.22 416.42 267.7C413.29 267.52 410.03 267.3 407.29 265.7C400.39 261.71 399.53 257.3 400.27 249.24Z" fill="#5E72E4"/>
<path d="M400.88 172.81C400.466 175.613 401.038 178.473 402.5 180.9C404.45 183.9 408.15 185.77 408.81 189.23C409.12 190.81 408.71 192.45 408.81 194.06C408.91 195.67 409.81 197.47 411.46 197.62C412.04 197.648 412.616 197.52 413.13 197.25C414.924 196.212 416.363 194.658 417.26 192.79C420.26 187.54 422.2 181.39 421.26 175.39C420.32 169.39 416.09 163.71 410.2 162.25C402.94 160.45 401.52 167.11 400.88 172.81Z" fill="url(#paint18_linear)"/>
<path d="M401.5 162.11C402.33 165.06 404.82 167.27 407.45 168.85C408.776 169.53 410.017 170.362 411.15 171.33C414.63 174.74 413.78 180.38 413.75 185.24C413.75 188.69 414.31 192.3 416.37 195.06C419.9 199.8 426.54 200.71 432.44 200.87C433.074 200.954 433.718 200.824 434.27 200.5C434.703 200.118 434.983 199.592 435.06 199.02C436.22 193.59 431.11 188.52 431.53 183.02C431.76 179.89 433.74 177.15 434.38 174.08C435.31 169.63 433.31 164.99 430.38 161.53C429.201 160.04 427.691 158.845 425.97 158.04C422.88 156.75 419.25 157.48 416.12 156.29C414.3 155.61 412.77 154.29 410.97 153.58C406 151.58 400.09 157.11 401.5 162.11Z" fill="#606161"/>
<path d="M379.09 225.6C378.344 225.208 377.484 225.091 376.66 225.27C376.203 225.462 375.796 225.756 375.47 226.13C373.791 227.849 372.478 229.89 371.61 232.13C371.102 233.182 370.985 234.38 371.28 235.51C371.881 236.684 372.87 237.614 374.08 238.14C382.17 242.79 391.86 249.43 401.14 248.52C401.79 248.46 401.57 246.52 402.05 246.09C402.58 245.469 402.867 244.677 402.86 243.86C403.273 240.915 403.357 237.933 403.11 234.97C402.86 231.984 401.617 229.167 399.58 226.97C398.788 226.074 397.696 225.498 396.51 225.35C394.71 225.25 394.84 226.62 393.77 227.26C392.45 228.05 390.48 228.04 388.98 228C385.572 227.764 382.228 226.952 379.09 225.6V225.6Z" fill="#5E72E4"/>
<path opacity="0.26" d="M411.37 219.11C411.37 219.11 408.37 243.11 400.27 249.2C400.27 249.2 397.49 264.03 410.27 266.58C413.386 267.625 416.696 267.967 419.96 267.58C419.96 267.58 407.53 271.35 409.88 246.42C412.23 221.49 411.37 219.11 411.37 219.11Z" fill="url(#paint19_linear)"/>
<path d="M393.75 200.41L387.92 207.65L387.07 210.15L389.36 208.71L396.66 199.29C396.62 199.084 396.516 198.897 396.364 198.753C396.211 198.61 396.018 198.517 395.81 198.49C395.12 198.44 393.75 200.41 393.75 200.41Z" fill="#606161"/>
<path d="M388.25 203.88C387.731 204.143 387.252 204.48 386.83 204.88C386.031 205.558 385.412 206.424 385.03 207.4C384.806 208.159 384.735 208.954 384.82 209.74C384.82 210.24 385 210.83 385.48 210.99C385.658 211.03 385.844 211.023 386.019 210.97C386.194 210.918 386.353 210.821 386.48 210.69C387.21 209.86 387.771 208.895 388.13 207.85C388.8 206.55 389.93 205.62 390.7 204.41C391.69 202.89 389.03 203.48 388.25 203.88Z" fill="url(#paint20_linear)"/>
<path d="M393.04 206.61C393.33 207.14 393.53 207.72 393.82 208.25C394.666 209.618 395.803 210.782 397.15 211.66C397.258 211.725 397.351 211.814 397.42 211.92C397.507 212.09 397.525 212.287 397.47 212.47C397.389 212.816 397.268 213.152 397.11 213.47L396.01 215.97C396.002 215.998 395.989 216.025 395.97 216.047C395.95 216.07 395.927 216.088 395.9 216.1C395.845 216.119 395.785 216.119 395.73 216.1L391.92 214.66C391.358 214.457 390.81 214.216 390.28 213.94C389.226 213.364 388.353 212.505 387.76 211.46C387.586 211.233 387.478 210.962 387.45 210.678C387.421 210.393 387.474 210.106 387.6 209.85C387.94 209.38 388.6 209.36 389.08 208.97C389.218 208.838 389.336 208.686 389.43 208.52C390.01 207.64 390.54 206.67 391.19 205.84C391.84 205.01 392.64 205.86 393.04 206.61Z" fill="url(#paint21_linear)"/>
<path d="M400.13 362.11C399.954 362.263 399.81 362.45 399.707 362.659C399.604 362.869 399.544 363.097 399.53 363.33C399.587 363.671 399.76 363.982 400.02 364.21C400.953 364.97 402.099 365.421 403.3 365.5C407.186 366.084 411.151 365.866 414.95 364.86C415.904 364.687 416.784 364.234 417.48 363.56C418.169 362.544 418.486 361.322 418.38 360.1L418.5 355.89C418.541 355.553 418.503 355.21 418.39 354.89C418.07 354.12 417.08 353.89 416.25 353.89C414.254 353.738 412.25 353.701 410.25 353.78C409.54 353.78 408.63 353.67 408.07 354.12C407.51 354.57 407.31 355.44 406.94 355.91C405.02 358.38 402.21 359.87 400.13 362.11Z" fill="#606161"/>
<path d="M420.14 362.16C419.967 362.306 419.826 362.486 419.727 362.689C419.627 362.892 419.57 363.114 419.56 363.34C419.608 363.668 419.775 363.967 420.03 364.18C420.93 364.919 422.038 365.36 423.2 365.44C426.953 366.001 430.781 365.79 434.45 364.82C435.373 364.65 436.225 364.212 436.9 363.56C437.563 362.579 437.87 361.4 437.77 360.22L437.89 356.15C437.92 355.836 437.882 355.519 437.78 355.22C437.47 354.47 436.52 354.29 435.72 354.22C433.79 354.078 431.854 354.042 429.92 354.11C429.24 354.11 428.36 354.02 427.82 354.45C427.28 354.88 427.08 355.72 426.72 356.18C424.86 358.52 422.15 359.97 420.14 362.16Z" fill="#606161"/>
</g>
<defs>
<linearGradient id="paint0_linear" x1="248.62" y1="227.74" x2="289.26" y2="510.78" gradientUnits="userSpaceOnUse">
<stop stop-color="#010101" stop-opacity="0"/>
<stop offset="0.95" stop-color="#010101"/>
</linearGradient>
<linearGradient id="paint1_linear" x1="264.87" y1="-110.97" x2="250.1" y2="324.19" gradientUnits="userSpaceOnUse">
<stop stop-color="white" stop-opacity="0"/>
<stop offset="0.95" stop-color="white"/>
</linearGradient>
<linearGradient id="paint2_linear" x1="20824.8" y1="28355.5" x2="35536.9" y2="31244.9" gradientUnits="userSpaceOnUse">
<stop stop-color="#010101" stop-opacity="0"/>
<stop offset="0.95" stop-color="#010101"/>
</linearGradient>
<linearGradient id="paint3_linear" x1="14527" y1="6549.19" x2="14444.9" y2="8959.68" gradientUnits="userSpaceOnUse">
<stop stop-color="white" stop-opacity="0"/>
<stop offset="0.95" stop-color="white"/>
</linearGradient>
<linearGradient id="paint4_linear" x1="366.36" y1="222.4" x2="377.26" y2="222.4" gradientUnits="userSpaceOnUse">
<stop stop-color="#E5C6D6"/>
<stop offset="0.42" stop-color="#EAD4D0"/>
<stop offset="1" stop-color="#F0E9CB"/>
</linearGradient>
<linearGradient id="paint5_linear" x1="36015.3" y1="1329.86" x2="36019.7" y2="3305.04" gradientUnits="userSpaceOnUse">
<stop stop-color="#010101" stop-opacity="0"/>
<stop offset="0.95" stop-color="#010101"/>
</linearGradient>
<linearGradient id="paint6_linear" x1="50058.3" y1="769.581" x2="50062.7" y2="2744.76" gradientUnits="userSpaceOnUse">
<stop stop-color="#010101" stop-opacity="0"/>
<stop offset="0.95" stop-color="#010101"/>
</linearGradient>
<linearGradient id="paint7_linear" x1="1930.93" y1="1132.99" x2="1992.96" y2="2576.07" gradientUnits="userSpaceOnUse">
<stop stop-color="#010101" stop-opacity="0"/>
<stop offset="0.95" stop-color="#010101"/>
</linearGradient>
<linearGradient id="paint8_linear" x1="1921.22" y1="1151.89" x2="1983.37" y2="2595.09" gradientUnits="userSpaceOnUse">
<stop stop-color="#010101" stop-opacity="0"/>
<stop offset="0.95" stop-color="#010101"/>
</linearGradient>
<linearGradient id="paint9_linear" x1="3580.65" y1="1119.06" x2="3642.69" y2="2562.14" gradientUnits="userSpaceOnUse">
<stop stop-color="#010101" stop-opacity="0"/>
<stop offset="0.95" stop-color="#010101"/>
</linearGradient>
<linearGradient id="paint10_linear" x1="5232.22" y1="1119.06" x2="5294.25" y2="2562.14" gradientUnits="userSpaceOnUse">
<stop stop-color="#010101" stop-opacity="0"/>
<stop offset="0.95" stop-color="#010101"/>
</linearGradient>
<linearGradient id="paint11_linear" x1="3580.65" y1="1449.28" x2="3642.69" y2="2892.48" gradientUnits="userSpaceOnUse">
<stop stop-color="#010101" stop-opacity="0"/>
<stop offset="0.95" stop-color="#010101"/>
</linearGradient>
<linearGradient id="paint12_linear" x1="3580.65" y1="1779.6" x2="3642.69" y2="3222.69" gradientUnits="userSpaceOnUse">
<stop stop-color="#010101" stop-opacity="0"/>
<stop offset="0.95" stop-color="#010101"/>
</linearGradient>
<linearGradient id="paint13_linear" x1="1921.22" y1="1655.8" x2="1983.37" y2="3098.88" gradientUnits="userSpaceOnUse">
<stop stop-color="#010101" stop-opacity="0"/>
<stop offset="0.95" stop-color="#010101"/>
</linearGradient>
<linearGradient id="paint14_linear" x1="1921.22" y1="1868.54" x2="1983.37" y2="3311.62" gradientUnits="userSpaceOnUse">
<stop stop-color="#010101" stop-opacity="0"/>
<stop offset="0.95" stop-color="#010101"/>
</linearGradient>
<linearGradient id="paint15_linear" x1="1921.22" y1="2081.27" x2="1983.37" y2="3524.35" gradientUnits="userSpaceOnUse">
<stop stop-color="#010101" stop-opacity="0"/>
<stop offset="0.95" stop-color="#010101"/>
</linearGradient>
<linearGradient id="paint16_linear" x1="1921.22" y1="2467.59" x2="1983.37" y2="3910.67" gradientUnits="userSpaceOnUse">
<stop stop-color="#010101" stop-opacity="0"/>
<stop offset="0.95" stop-color="#010101"/>
</linearGradient>
<linearGradient id="paint17_linear" x1="1921.22" y1="2841.29" x2="1983.37" y2="4284.38" gradientUnits="userSpaceOnUse">
<stop stop-color="#010101" stop-opacity="0"/>
<stop offset="0.95" stop-color="#010101"/>
</linearGradient>
<linearGradient id="paint18_linear" x1="9580.91" y1="7243.3" x2="10003.5" y2="7207.22" gradientUnits="userSpaceOnUse">
<stop stop-color="#E5C6D6"/>
<stop offset="0.42" stop-color="#EAD4D0"/>
<stop offset="1" stop-color="#F0E9CB"/>
</linearGradient>
<linearGradient id="paint19_linear" x1="9001.71" y1="13786.8" x2="7529.37" y2="13108.3" gradientUnits="userSpaceOnUse">
<stop stop-color="#010101" stop-opacity="0"/>
<stop offset="0.95" stop-color="#010101"/>
</linearGradient>
<linearGradient id="paint20_linear" x1="2782.92" y1="1912.36" x2="2820.46" y2="1912.36" gradientUnits="userSpaceOnUse">
<stop stop-color="#E5C6D6"/>
<stop offset="0.42" stop-color="#EAD4D0"/>
<stop offset="1" stop-color="#F0E9CB"/>
</linearGradient>
<linearGradient id="paint21_linear" x1="4347.47" y1="2632.94" x2="4448.77" y2="2632.94" gradientUnits="userSpaceOnUse">
<stop stop-color="#E5C6D6"/>
<stop offset="0.42" stop-color="#EAD4D0"/>
<stop offset="1" stop-color="#F0E9CB"/>
</linearGradient>
<clipPath id="clip0">
<rect width="510.43" height="371.3" fill="white"/>
</clipPath>
</defs>
</svg>
